<mxfile host="Electron" agent="Mozilla/5.0 (X11; Linux x86_64) AppleWebKit/537.36 (KHTML, like Gecko) draw.io/27.0.5 Chrome/134.0.6998.205 Electron/35.3.0 Safari/537.36" version="27.0.5">
  <diagram name="Page-1" id="y_ZQESW1vxMKCGsYayRb">
    <mxGraphModel dx="1223" dy="765" grid="1" gridSize="10" guides="1" tooltips="1" connect="1" arrows="1" fold="1" page="0" pageScale="1" pageWidth="1700" pageHeight="1100" math="0" shadow="0">
      <root>
        <mxCell id="0" />
        <mxCell id="1" parent="0" />
        <mxCell id="Sy6wfYp_tRHCGX6oZVIA-3" value="extra" style="shape=table;startSize=30;container=1;collapsible=0;childLayout=tableLayout;strokeColor=default;fontSize=16;align=center;" parent="1" vertex="1">
          <mxGeometry x="40" y="40" width="630" height="90" as="geometry" />
        </mxCell>
        <mxCell id="Sy6wfYp_tRHCGX6oZVIA-4" value="" style="shape=tableRow;horizontal=0;startSize=0;swimlaneHead=0;swimlaneBody=0;strokeColor=inherit;top=0;left=0;bottom=0;right=0;collapsible=0;dropTarget=0;fillColor=none;points=[[0,0.5],[1,0.5]];portConstraint=eastwest;fontSize=16;align=left;" parent="Sy6wfYp_tRHCGX6oZVIA-3" vertex="1">
          <mxGeometry y="30" width="630" height="20" as="geometry" />
        </mxCell>
        <mxCell id="Sy6wfYp_tRHCGX6oZVIA-5" value="id" style="shape=partialRectangle;html=1;connectable=0;strokeColor=inherit;overflow=hidden;fillColor=none;top=0;left=0;bottom=0;right=0;pointerEvents=1;fontSize=16;text-align:right;align=left;" parent="Sy6wfYp_tRHCGX6oZVIA-4" vertex="1">
          <mxGeometry width="53" height="20" as="geometry">
            <mxRectangle width="53" height="20" as="alternateBounds" />
          </mxGeometry>
        </mxCell>
        <mxCell id="Sy6wfYp_tRHCGX6oZVIA-6" value="INTEGER" style="shape=partialRectangle;html=1;connectable=0;strokeColor=inherit;overflow=hidden;fillColor=none;top=0;left=0;bottom=0;right=0;pointerEvents=1;fontSize=16;align=left;" parent="Sy6wfYp_tRHCGX6oZVIA-4" vertex="1">
          <mxGeometry x="53" width="77" height="20" as="geometry">
            <mxRectangle width="77" height="20" as="alternateBounds" />
          </mxGeometry>
        </mxCell>
        <mxCell id="Sy6wfYp_tRHCGX6oZVIA-7" value="PRIMARY KEY AUTO" style="shape=partialRectangle;html=1;connectable=0;strokeColor=inherit;overflow=hidden;fillColor=none;top=0;left=0;bottom=0;right=0;pointerEvents=1;fontSize=16;align=left;" parent="Sy6wfYp_tRHCGX6oZVIA-4" vertex="1">
          <mxGeometry x="130" width="170" height="20" as="geometry">
            <mxRectangle width="170" height="20" as="alternateBounds" />
          </mxGeometry>
        </mxCell>
        <mxCell id="Sy6wfYp_tRHCGX6oZVIA-54" style="shape=partialRectangle;html=1;connectable=0;strokeColor=inherit;overflow=hidden;fillColor=none;top=0;left=0;bottom=0;right=0;pointerEvents=1;fontSize=16;align=left;" parent="Sy6wfYp_tRHCGX6oZVIA-4" vertex="1">
          <mxGeometry x="300" width="330" height="20" as="geometry">
            <mxRectangle width="330" height="20" as="alternateBounds" />
          </mxGeometry>
        </mxCell>
        <mxCell id="Sy6wfYp_tRHCGX6oZVIA-8" value="" style="shape=tableRow;horizontal=0;startSize=0;swimlaneHead=0;swimlaneBody=0;strokeColor=inherit;top=0;left=0;bottom=0;right=0;collapsible=0;dropTarget=0;fillColor=none;points=[[0,0.5],[1,0.5]];portConstraint=eastwest;fontSize=16;align=left;" parent="Sy6wfYp_tRHCGX6oZVIA-3" vertex="1">
          <mxGeometry y="50" width="630" height="20" as="geometry" />
        </mxCell>
        <mxCell id="Sy6wfYp_tRHCGX6oZVIA-9" value="key" style="shape=partialRectangle;html=1;connectable=0;strokeColor=inherit;overflow=hidden;fillColor=none;top=0;left=0;bottom=0;right=0;pointerEvents=1;fontSize=16;align=left;" parent="Sy6wfYp_tRHCGX6oZVIA-8" vertex="1">
          <mxGeometry width="53" height="20" as="geometry">
            <mxRectangle width="53" height="20" as="alternateBounds" />
          </mxGeometry>
        </mxCell>
        <mxCell id="Sy6wfYp_tRHCGX6oZVIA-10" value="TEXT" style="shape=partialRectangle;html=1;connectable=0;strokeColor=inherit;overflow=hidden;fillColor=none;top=0;left=0;bottom=0;right=0;pointerEvents=1;fontSize=16;align=left;" parent="Sy6wfYp_tRHCGX6oZVIA-8" vertex="1">
          <mxGeometry x="53" width="77" height="20" as="geometry">
            <mxRectangle width="77" height="20" as="alternateBounds" />
          </mxGeometry>
        </mxCell>
        <mxCell id="Sy6wfYp_tRHCGX6oZVIA-11" value="NOT NULL UNIQUE" style="shape=partialRectangle;html=1;connectable=0;strokeColor=inherit;overflow=hidden;fillColor=none;top=0;left=0;bottom=0;right=0;pointerEvents=1;fontSize=16;align=left;" parent="Sy6wfYp_tRHCGX6oZVIA-8" vertex="1">
          <mxGeometry x="130" width="170" height="20" as="geometry">
            <mxRectangle width="170" height="20" as="alternateBounds" />
          </mxGeometry>
        </mxCell>
        <mxCell id="Sy6wfYp_tRHCGX6oZVIA-55" style="shape=partialRectangle;html=1;connectable=0;strokeColor=inherit;overflow=hidden;fillColor=none;top=0;left=0;bottom=0;right=0;pointerEvents=1;fontSize=16;align=left;" parent="Sy6wfYp_tRHCGX6oZVIA-8" vertex="1">
          <mxGeometry x="300" width="330" height="20" as="geometry">
            <mxRectangle width="330" height="20" as="alternateBounds" />
          </mxGeometry>
        </mxCell>
        <mxCell id="Sy6wfYp_tRHCGX6oZVIA-12" value="" style="shape=tableRow;horizontal=0;startSize=0;swimlaneHead=0;swimlaneBody=0;strokeColor=inherit;top=0;left=0;bottom=0;right=0;collapsible=0;dropTarget=0;fillColor=none;points=[[0,0.5],[1,0.5]];portConstraint=eastwest;fontSize=16;align=left;" parent="Sy6wfYp_tRHCGX6oZVIA-3" vertex="1">
          <mxGeometry y="70" width="630" height="20" as="geometry" />
        </mxCell>
        <mxCell id="Sy6wfYp_tRHCGX6oZVIA-13" value="value" style="shape=partialRectangle;html=1;connectable=0;strokeColor=inherit;overflow=hidden;fillColor=none;top=0;left=0;bottom=0;right=0;pointerEvents=1;fontSize=16;align=left;" parent="Sy6wfYp_tRHCGX6oZVIA-12" vertex="1">
          <mxGeometry width="53" height="20" as="geometry">
            <mxRectangle width="53" height="20" as="alternateBounds" />
          </mxGeometry>
        </mxCell>
        <mxCell id="Sy6wfYp_tRHCGX6oZVIA-14" value="TEXT" style="shape=partialRectangle;html=1;connectable=0;strokeColor=inherit;overflow=hidden;fillColor=none;top=0;left=0;bottom=0;right=0;pointerEvents=1;fontSize=16;align=left;" parent="Sy6wfYp_tRHCGX6oZVIA-12" vertex="1">
          <mxGeometry x="53" width="77" height="20" as="geometry">
            <mxRectangle width="77" height="20" as="alternateBounds" />
          </mxGeometry>
        </mxCell>
        <mxCell id="Sy6wfYp_tRHCGX6oZVIA-15" value="&lt;div&gt;NOT NULL&lt;/div&gt;" style="shape=partialRectangle;html=1;connectable=0;strokeColor=inherit;overflow=hidden;fillColor=none;top=0;left=0;bottom=0;right=0;pointerEvents=1;fontSize=16;align=left;" parent="Sy6wfYp_tRHCGX6oZVIA-12" vertex="1">
          <mxGeometry x="130" width="170" height="20" as="geometry">
            <mxRectangle width="170" height="20" as="alternateBounds" />
          </mxGeometry>
        </mxCell>
        <mxCell id="Sy6wfYp_tRHCGX6oZVIA-56" style="shape=partialRectangle;html=1;connectable=0;strokeColor=inherit;overflow=hidden;fillColor=none;top=0;left=0;bottom=0;right=0;pointerEvents=1;fontSize=16;align=left;" parent="Sy6wfYp_tRHCGX6oZVIA-12" vertex="1">
          <mxGeometry x="300" width="330" height="20" as="geometry">
            <mxRectangle width="330" height="20" as="alternateBounds" />
          </mxGeometry>
        </mxCell>
        <mxCell id="Sy6wfYp_tRHCGX6oZVIA-62" value="doc (one entire document)" style="shape=table;startSize=30;container=1;collapsible=0;childLayout=tableLayout;strokeColor=default;fontSize=16;align=center;" parent="1" vertex="1">
          <mxGeometry y="380" width="680" height="140" as="geometry" />
        </mxCell>
        <mxCell id="Sy6wfYp_tRHCGX6oZVIA-63" value="" style="shape=tableRow;horizontal=0;startSize=0;swimlaneHead=0;swimlaneBody=0;strokeColor=inherit;top=0;left=0;bottom=0;right=0;collapsible=0;dropTarget=0;fillColor=none;points=[[0,0.5],[1,0.5]];portConstraint=eastwest;fontSize=16;align=left;" parent="Sy6wfYp_tRHCGX6oZVIA-62" vertex="1">
          <mxGeometry y="30" width="680" height="17" as="geometry" />
        </mxCell>
        <mxCell id="Sy6wfYp_tRHCGX6oZVIA-64" value="id" style="shape=partialRectangle;html=1;connectable=0;strokeColor=inherit;overflow=hidden;fillColor=none;top=0;left=0;bottom=0;right=0;pointerEvents=1;fontSize=16;text-align:right;align=left;" parent="Sy6wfYp_tRHCGX6oZVIA-63" vertex="1">
          <mxGeometry width="60" height="17" as="geometry">
            <mxRectangle width="60" height="17" as="alternateBounds" />
          </mxGeometry>
        </mxCell>
        <mxCell id="Sy6wfYp_tRHCGX6oZVIA-65" value="INTEGER" style="shape=partialRectangle;html=1;connectable=0;strokeColor=inherit;overflow=hidden;fillColor=none;top=0;left=0;bottom=0;right=0;pointerEvents=1;fontSize=16;align=left;" parent="Sy6wfYp_tRHCGX6oZVIA-63" vertex="1">
          <mxGeometry x="60" width="90" height="17" as="geometry">
            <mxRectangle width="90" height="17" as="alternateBounds" />
          </mxGeometry>
        </mxCell>
        <mxCell id="Sy6wfYp_tRHCGX6oZVIA-66" value="PRIMARY KEY AUTO" style="shape=partialRectangle;html=1;connectable=0;strokeColor=inherit;overflow=hidden;fillColor=none;top=0;left=0;bottom=0;right=0;pointerEvents=1;fontSize=16;align=left;" parent="Sy6wfYp_tRHCGX6oZVIA-63" vertex="1">
          <mxGeometry x="150" width="160" height="17" as="geometry">
            <mxRectangle width="160" height="17" as="alternateBounds" />
          </mxGeometry>
        </mxCell>
        <mxCell id="Sy6wfYp_tRHCGX6oZVIA-67" style="shape=partialRectangle;html=1;connectable=0;strokeColor=inherit;overflow=hidden;fillColor=none;top=0;left=0;bottom=0;right=0;pointerEvents=1;fontSize=16;align=left;" parent="Sy6wfYp_tRHCGX6oZVIA-63" vertex="1">
          <mxGeometry x="310" width="370" height="17" as="geometry">
            <mxRectangle width="370" height="17" as="alternateBounds" />
          </mxGeometry>
        </mxCell>
        <mxCell id="-N10hWzUFT1irTYi3381-35" style="shape=tableRow;horizontal=0;startSize=0;swimlaneHead=0;swimlaneBody=0;strokeColor=inherit;top=0;left=0;bottom=0;right=0;collapsible=0;dropTarget=0;fillColor=none;points=[[0,0.5],[1,0.5]];portConstraint=eastwest;fontSize=16;align=left;" parent="Sy6wfYp_tRHCGX6oZVIA-62" vertex="1">
          <mxGeometry y="47" width="680" height="23" as="geometry" />
        </mxCell>
        <mxCell id="-N10hWzUFT1irTYi3381-36" value="version" style="shape=partialRectangle;html=1;connectable=0;strokeColor=inherit;overflow=hidden;fillColor=none;top=0;left=0;bottom=0;right=0;pointerEvents=1;fontSize=16;text-align:right;align=left;" parent="-N10hWzUFT1irTYi3381-35" vertex="1">
          <mxGeometry width="60" height="23" as="geometry">
            <mxRectangle width="60" height="23" as="alternateBounds" />
          </mxGeometry>
        </mxCell>
        <mxCell id="-N10hWzUFT1irTYi3381-37" value="TEXT" style="shape=partialRectangle;html=1;connectable=0;strokeColor=inherit;overflow=hidden;fillColor=none;top=0;left=0;bottom=0;right=0;pointerEvents=1;fontSize=16;align=left;" parent="-N10hWzUFT1irTYi3381-35" vertex="1">
          <mxGeometry x="60" width="90" height="23" as="geometry">
            <mxRectangle width="90" height="23" as="alternateBounds" />
          </mxGeometry>
        </mxCell>
        <mxCell id="-N10hWzUFT1irTYi3381-38" value="NOT NULL" style="shape=partialRectangle;html=1;connectable=0;strokeColor=inherit;overflow=hidden;fillColor=none;top=0;left=0;bottom=0;right=0;pointerEvents=1;fontSize=16;align=left;" parent="-N10hWzUFT1irTYi3381-35" vertex="1">
          <mxGeometry x="150" width="160" height="23" as="geometry">
            <mxRectangle width="160" height="23" as="alternateBounds" />
          </mxGeometry>
        </mxCell>
        <mxCell id="-N10hWzUFT1irTYi3381-39" value="2.0" style="shape=partialRectangle;html=1;connectable=0;strokeColor=inherit;overflow=hidden;fillColor=none;top=0;left=0;bottom=0;right=0;pointerEvents=1;fontSize=16;align=left;" parent="-N10hWzUFT1irTYi3381-35" vertex="1">
          <mxGeometry x="310" width="370" height="23" as="geometry">
            <mxRectangle width="370" height="23" as="alternateBounds" />
          </mxGeometry>
        </mxCell>
        <mxCell id="Sy6wfYp_tRHCGX6oZVIA-68" value="" style="shape=tableRow;horizontal=0;startSize=0;swimlaneHead=0;swimlaneBody=0;strokeColor=inherit;top=0;left=0;bottom=0;right=0;collapsible=0;dropTarget=0;fillColor=none;points=[[0,0.5],[1,0.5]];portConstraint=eastwest;fontSize=16;align=left;" parent="Sy6wfYp_tRHCGX6oZVIA-62" vertex="1">
          <mxGeometry y="70" width="680" height="26" as="geometry" />
        </mxCell>
        <mxCell id="Sy6wfYp_tRHCGX6oZVIA-69" value="uuid" style="shape=partialRectangle;html=1;connectable=0;strokeColor=inherit;overflow=hidden;fillColor=none;top=0;left=0;bottom=0;right=0;pointerEvents=1;fontSize=16;align=left;" parent="Sy6wfYp_tRHCGX6oZVIA-68" vertex="1">
          <mxGeometry width="60" height="26" as="geometry">
            <mxRectangle width="60" height="26" as="alternateBounds" />
          </mxGeometry>
        </mxCell>
        <mxCell id="Sy6wfYp_tRHCGX6oZVIA-70" value="TEXT" style="shape=partialRectangle;html=1;connectable=0;strokeColor=inherit;overflow=hidden;fillColor=none;top=0;left=0;bottom=0;right=0;pointerEvents=1;fontSize=16;align=left;" parent="Sy6wfYp_tRHCGX6oZVIA-68" vertex="1">
          <mxGeometry x="60" width="90" height="26" as="geometry">
            <mxRectangle width="90" height="26" as="alternateBounds" />
          </mxGeometry>
        </mxCell>
        <mxCell id="Sy6wfYp_tRHCGX6oZVIA-71" value="NOT NULL UNIQUE" style="shape=partialRectangle;html=1;connectable=0;strokeColor=inherit;overflow=hidden;fillColor=none;top=0;left=0;bottom=0;right=0;pointerEvents=1;fontSize=16;align=left;" parent="Sy6wfYp_tRHCGX6oZVIA-68" vertex="1">
          <mxGeometry x="150" width="160" height="26" as="geometry">
            <mxRectangle width="160" height="26" as="alternateBounds" />
          </mxGeometry>
        </mxCell>
        <mxCell id="Sy6wfYp_tRHCGX6oZVIA-72" style="shape=partialRectangle;html=1;connectable=0;strokeColor=inherit;overflow=hidden;fillColor=none;top=0;left=0;bottom=0;right=0;pointerEvents=1;fontSize=16;align=left;" parent="Sy6wfYp_tRHCGX6oZVIA-68" vertex="1">
          <mxGeometry x="310" width="370" height="26" as="geometry">
            <mxRectangle width="370" height="26" as="alternateBounds" />
          </mxGeometry>
        </mxCell>
        <mxCell id="Sy6wfYp_tRHCGX6oZVIA-73" value="" style="shape=tableRow;horizontal=0;startSize=0;swimlaneHead=0;swimlaneBody=0;strokeColor=inherit;top=0;left=0;bottom=0;right=0;collapsible=0;dropTarget=0;fillColor=none;points=[[0,0.5],[1,0.5]];portConstraint=eastwest;fontSize=16;align=left;" parent="Sy6wfYp_tRHCGX6oZVIA-62" vertex="1">
          <mxGeometry y="96" width="680" height="24" as="geometry" />
        </mxCell>
        <mxCell id="Sy6wfYp_tRHCGX6oZVIA-74" value="name" style="shape=partialRectangle;html=1;connectable=0;strokeColor=inherit;overflow=hidden;fillColor=none;top=0;left=0;bottom=0;right=0;pointerEvents=1;fontSize=16;align=left;" parent="Sy6wfYp_tRHCGX6oZVIA-73" vertex="1">
          <mxGeometry width="60" height="24" as="geometry">
            <mxRectangle width="60" height="24" as="alternateBounds" />
          </mxGeometry>
        </mxCell>
        <mxCell id="Sy6wfYp_tRHCGX6oZVIA-75" value="TEXT" style="shape=partialRectangle;html=1;connectable=0;strokeColor=inherit;overflow=hidden;fillColor=none;top=0;left=0;bottom=0;right=0;pointerEvents=1;fontSize=16;align=left;" parent="Sy6wfYp_tRHCGX6oZVIA-73" vertex="1">
          <mxGeometry x="60" width="90" height="24" as="geometry">
            <mxRectangle width="90" height="24" as="alternateBounds" />
          </mxGeometry>
        </mxCell>
        <mxCell id="Sy6wfYp_tRHCGX6oZVIA-76" value="&lt;div&gt;NOT NULL&lt;/div&gt;" style="shape=partialRectangle;html=1;connectable=0;strokeColor=inherit;overflow=hidden;fillColor=none;top=0;left=0;bottom=0;right=0;pointerEvents=1;fontSize=16;align=left;" parent="Sy6wfYp_tRHCGX6oZVIA-73" vertex="1">
          <mxGeometry x="150" width="160" height="24" as="geometry">
            <mxRectangle width="160" height="24" as="alternateBounds" />
          </mxGeometry>
        </mxCell>
        <mxCell id="Sy6wfYp_tRHCGX6oZVIA-77" value="document name (formerly in docTree, now here)" style="shape=partialRectangle;html=1;connectable=0;strokeColor=inherit;overflow=hidden;fillColor=none;top=0;left=0;bottom=0;right=0;pointerEvents=1;fontSize=16;align=left;" parent="Sy6wfYp_tRHCGX6oZVIA-73" vertex="1">
          <mxGeometry x="310" width="370" height="24" as="geometry">
            <mxRectangle width="370" height="24" as="alternateBounds" />
          </mxGeometry>
        </mxCell>
        <mxCell id="-N10hWzUFT1irTYi3381-17" style="shape=tableRow;horizontal=0;startSize=0;swimlaneHead=0;swimlaneBody=0;strokeColor=inherit;top=0;left=0;bottom=0;right=0;collapsible=0;dropTarget=0;fillColor=none;points=[[0,0.5],[1,0.5]];portConstraint=eastwest;fontSize=16;align=left;labelBackgroundColor=#FF8000;" parent="Sy6wfYp_tRHCGX6oZVIA-62" vertex="1">
          <mxGeometry y="120" width="680" height="20" as="geometry" />
        </mxCell>
        <mxCell id="-N10hWzUFT1irTYi3381-18" value="content" style="shape=partialRectangle;html=1;connectable=0;strokeColor=inherit;overflow=hidden;fillColor=none;top=0;left=0;bottom=0;right=0;pointerEvents=1;fontSize=16;align=left;labelBackgroundColor=none;" parent="-N10hWzUFT1irTYi3381-17" vertex="1">
          <mxGeometry width="60" height="20" as="geometry">
            <mxRectangle width="60" height="20" as="alternateBounds" />
          </mxGeometry>
        </mxCell>
        <mxCell id="-N10hWzUFT1irTYi3381-19" value="BLOB" style="shape=partialRectangle;html=1;connectable=0;strokeColor=inherit;overflow=hidden;fillColor=none;top=0;left=0;bottom=0;right=0;pointerEvents=1;fontSize=16;align=left;labelBackgroundColor=none;" parent="-N10hWzUFT1irTYi3381-17" vertex="1">
          <mxGeometry x="60" width="90" height="20" as="geometry">
            <mxRectangle width="90" height="20" as="alternateBounds" />
          </mxGeometry>
        </mxCell>
        <mxCell id="-N10hWzUFT1irTYi3381-20" value="NOT NULL" style="shape=partialRectangle;html=1;connectable=0;strokeColor=inherit;overflow=hidden;fillColor=none;top=0;left=0;bottom=0;right=0;pointerEvents=1;fontSize=16;align=left;labelBackgroundColor=none;" parent="-N10hWzUFT1irTYi3381-17" vertex="1">
          <mxGeometry x="150" width="160" height="20" as="geometry">
            <mxRectangle width="160" height="20" as="alternateBounds" />
          </mxGeometry>
        </mxCell>
        <mxCell id="-N10hWzUFT1irTYi3381-21" value="" style="shape=partialRectangle;html=1;connectable=0;strokeColor=inherit;overflow=hidden;fillColor=none;top=0;left=0;bottom=0;right=0;pointerEvents=1;fontSize=16;align=left;labelBackgroundColor=none;" parent="-N10hWzUFT1irTYi3381-17" vertex="1">
          <mxGeometry x="310" width="370" height="20" as="geometry">
            <mxRectangle width="370" height="20" as="alternateBounds" />
          </mxGeometry>
        </mxCell>
        <mxCell id="Sy6wfYp_tRHCGX6oZVIA-83" value="docTree (linkage to doc entries to show in left pane)" style="shape=table;startSize=30;container=1;collapsible=0;childLayout=tableLayout;strokeColor=default;fontSize=16;align=center;" parent="1" vertex="1">
          <mxGeometry x="10" y="190" width="670" height="150" as="geometry" />
        </mxCell>
        <mxCell id="Sy6wfYp_tRHCGX6oZVIA-84" value="" style="shape=tableRow;horizontal=0;startSize=0;swimlaneHead=0;swimlaneBody=0;strokeColor=inherit;top=0;left=0;bottom=0;right=0;collapsible=0;dropTarget=0;fillColor=none;points=[[0,0.5],[1,0.5]];portConstraint=eastwest;fontSize=16;align=left;" parent="Sy6wfYp_tRHCGX6oZVIA-83" vertex="1">
          <mxGeometry y="30" width="670" height="20" as="geometry" />
        </mxCell>
        <mxCell id="Sy6wfYp_tRHCGX6oZVIA-85" value="id" style="shape=partialRectangle;html=1;connectable=0;strokeColor=inherit;overflow=hidden;fillColor=none;top=0;left=0;bottom=0;right=0;pointerEvents=1;fontSize=16;text-align:right;align=left;" parent="Sy6wfYp_tRHCGX6oZVIA-84" vertex="1">
          <mxGeometry width="68" height="20" as="geometry">
            <mxRectangle width="68" height="20" as="alternateBounds" />
          </mxGeometry>
        </mxCell>
        <mxCell id="Sy6wfYp_tRHCGX6oZVIA-86" value="INTEGER" style="shape=partialRectangle;html=1;connectable=0;strokeColor=inherit;overflow=hidden;fillColor=none;top=0;left=0;bottom=0;right=0;pointerEvents=1;fontSize=16;align=left;" parent="Sy6wfYp_tRHCGX6oZVIA-84" vertex="1">
          <mxGeometry x="68" width="80" height="20" as="geometry">
            <mxRectangle width="80" height="20" as="alternateBounds" />
          </mxGeometry>
        </mxCell>
        <mxCell id="Sy6wfYp_tRHCGX6oZVIA-87" value="&lt;span style=&quot;color: rgb(0, 0, 0); font-family: Helvetica; font-size: 16px; font-style: normal; font-variant-ligatures: normal; font-variant-caps: normal; font-weight: 400; letter-spacing: normal; orphans: 2; text-align: left; text-indent: 0px; text-transform: none; widows: 2; word-spacing: 0px; -webkit-text-stroke-width: 0px; white-space: nowrap; background-color: rgb(236, 236, 236); text-decoration-thickness: initial; text-decoration-style: initial; text-decoration-color: initial; display: inline !important; float: none;&quot;&gt;PRIMARY KEY AUTO&lt;/span&gt;" style="shape=partialRectangle;html=1;connectable=0;strokeColor=inherit;overflow=hidden;fillColor=none;top=0;left=0;bottom=0;right=0;pointerEvents=1;fontSize=16;align=left;" parent="Sy6wfYp_tRHCGX6oZVIA-84" vertex="1">
          <mxGeometry x="148" width="162" height="20" as="geometry">
            <mxRectangle width="162" height="20" as="alternateBounds" />
          </mxGeometry>
        </mxCell>
        <mxCell id="Sy6wfYp_tRHCGX6oZVIA-88" style="shape=partialRectangle;html=1;connectable=0;strokeColor=inherit;overflow=hidden;fillColor=none;top=0;left=0;bottom=0;right=0;pointerEvents=1;fontSize=16;align=left;" parent="Sy6wfYp_tRHCGX6oZVIA-84" vertex="1">
          <mxGeometry x="310" width="360" height="20" as="geometry">
            <mxRectangle width="360" height="20" as="alternateBounds" />
          </mxGeometry>
        </mxCell>
        <mxCell id="Sy6wfYp_tRHCGX6oZVIA-104" style="shape=tableRow;horizontal=0;startSize=0;swimlaneHead=0;swimlaneBody=0;strokeColor=inherit;top=0;left=0;bottom=0;right=0;collapsible=0;dropTarget=0;fillColor=none;points=[[0,0.5],[1,0.5]];portConstraint=eastwest;fontSize=16;align=left;" parent="Sy6wfYp_tRHCGX6oZVIA-83" vertex="1">
          <mxGeometry y="50" width="670" height="20" as="geometry" />
        </mxCell>
        <mxCell id="Sy6wfYp_tRHCGX6oZVIA-105" value="name" style="shape=partialRectangle;html=1;connectable=0;strokeColor=inherit;overflow=hidden;fillColor=none;top=0;left=0;bottom=0;right=0;pointerEvents=1;fontSize=16;align=left;" parent="Sy6wfYp_tRHCGX6oZVIA-104" vertex="1">
          <mxGeometry width="68" height="20" as="geometry">
            <mxRectangle width="68" height="20" as="alternateBounds" />
          </mxGeometry>
        </mxCell>
        <mxCell id="Sy6wfYp_tRHCGX6oZVIA-106" value="TEXT" style="shape=partialRectangle;html=1;connectable=0;strokeColor=inherit;overflow=hidden;fillColor=none;top=0;left=0;bottom=0;right=0;pointerEvents=1;fontSize=16;align=left;" parent="Sy6wfYp_tRHCGX6oZVIA-104" vertex="1">
          <mxGeometry x="68" width="80" height="20" as="geometry">
            <mxRectangle width="80" height="20" as="alternateBounds" />
          </mxGeometry>
        </mxCell>
        <mxCell id="Sy6wfYp_tRHCGX6oZVIA-107" value="NOT NULL" style="shape=partialRectangle;html=1;connectable=0;strokeColor=inherit;overflow=hidden;fillColor=none;top=0;left=0;bottom=0;right=0;pointerEvents=1;fontSize=16;align=left;" parent="Sy6wfYp_tRHCGX6oZVIA-104" vertex="1">
          <mxGeometry x="148" width="162" height="20" as="geometry">
            <mxRectangle width="162" height="20" as="alternateBounds" />
          </mxGeometry>
        </mxCell>
        <mxCell id="Sy6wfYp_tRHCGX6oZVIA-108" value="visual doc name to display in left pane" style="shape=partialRectangle;html=1;connectable=0;strokeColor=inherit;overflow=hidden;fillColor=none;top=0;left=0;bottom=0;right=0;pointerEvents=1;fontSize=16;align=left;" parent="Sy6wfYp_tRHCGX6oZVIA-104" vertex="1">
          <mxGeometry x="310" width="360" height="20" as="geometry">
            <mxRectangle width="360" height="20" as="alternateBounds" />
          </mxGeometry>
        </mxCell>
        <mxCell id="Sy6wfYp_tRHCGX6oZVIA-89" value="" style="shape=tableRow;horizontal=0;startSize=0;swimlaneHead=0;swimlaneBody=0;strokeColor=inherit;top=0;left=0;bottom=0;right=0;collapsible=0;dropTarget=0;fillColor=none;points=[[0,0.5],[1,0.5]];portConstraint=eastwest;fontSize=16;align=left;" parent="Sy6wfYp_tRHCGX6oZVIA-83" vertex="1">
          <mxGeometry y="70" width="670" height="20" as="geometry" />
        </mxCell>
        <mxCell id="Sy6wfYp_tRHCGX6oZVIA-90" value="uuid" style="shape=partialRectangle;html=1;connectable=0;strokeColor=inherit;overflow=hidden;fillColor=none;top=0;left=0;bottom=0;right=0;pointerEvents=1;fontSize=16;align=left;" parent="Sy6wfYp_tRHCGX6oZVIA-89" vertex="1">
          <mxGeometry width="68" height="20" as="geometry">
            <mxRectangle width="68" height="20" as="alternateBounds" />
          </mxGeometry>
        </mxCell>
        <mxCell id="Sy6wfYp_tRHCGX6oZVIA-91" value="TEXT" style="shape=partialRectangle;html=1;connectable=0;strokeColor=inherit;overflow=hidden;fillColor=none;top=0;left=0;bottom=0;right=0;pointerEvents=1;fontSize=16;align=left;" parent="Sy6wfYp_tRHCGX6oZVIA-89" vertex="1">
          <mxGeometry x="68" width="80" height="20" as="geometry">
            <mxRectangle width="80" height="20" as="alternateBounds" />
          </mxGeometry>
        </mxCell>
        <mxCell id="Sy6wfYp_tRHCGX6oZVIA-92" value="NOT NULL UNIQUE" style="shape=partialRectangle;html=1;connectable=0;strokeColor=inherit;overflow=hidden;fillColor=none;top=0;left=0;bottom=0;right=0;pointerEvents=1;fontSize=16;align=left;" parent="Sy6wfYp_tRHCGX6oZVIA-89" vertex="1">
          <mxGeometry x="148" width="162" height="20" as="geometry">
            <mxRectangle width="162" height="20" as="alternateBounds" />
          </mxGeometry>
        </mxCell>
        <mxCell id="Sy6wfYp_tRHCGX6oZVIA-93" value="uuid of doc in table:doc" style="shape=partialRectangle;html=1;connectable=0;strokeColor=inherit;overflow=hidden;fillColor=none;top=0;left=0;bottom=0;right=0;pointerEvents=1;fontSize=16;align=left;" parent="Sy6wfYp_tRHCGX6oZVIA-89" vertex="1">
          <mxGeometry x="310" width="360" height="20" as="geometry">
            <mxRectangle width="360" height="20" as="alternateBounds" />
          </mxGeometry>
        </mxCell>
        <mxCell id="Sy6wfYp_tRHCGX6oZVIA-94" value="" style="shape=tableRow;horizontal=0;startSize=0;swimlaneHead=0;swimlaneBody=0;strokeColor=inherit;top=0;left=0;bottom=0;right=0;collapsible=0;dropTarget=0;fillColor=none;points=[[0,0.5],[1,0.5]];portConstraint=eastwest;fontSize=16;align=left;" parent="Sy6wfYp_tRHCGX6oZVIA-83" vertex="1">
          <mxGeometry y="90" width="670" height="20" as="geometry" />
        </mxCell>
        <mxCell id="Sy6wfYp_tRHCGX6oZVIA-95" value="listOrder" style="shape=partialRectangle;html=1;connectable=0;strokeColor=inherit;overflow=hidden;fillColor=none;top=0;left=0;bottom=0;right=0;pointerEvents=1;fontSize=16;align=left;" parent="Sy6wfYp_tRHCGX6oZVIA-94" vertex="1">
          <mxGeometry width="68" height="20" as="geometry">
            <mxRectangle width="68" height="20" as="alternateBounds" />
          </mxGeometry>
        </mxCell>
        <mxCell id="Sy6wfYp_tRHCGX6oZVIA-96" value="TEXT" style="shape=partialRectangle;html=1;connectable=0;strokeColor=inherit;overflow=hidden;fillColor=none;top=0;left=0;bottom=0;right=0;pointerEvents=1;fontSize=16;align=left;" parent="Sy6wfYp_tRHCGX6oZVIA-94" vertex="1">
          <mxGeometry x="68" width="80" height="20" as="geometry">
            <mxRectangle width="80" height="20" as="alternateBounds" />
          </mxGeometry>
        </mxCell>
        <mxCell id="Sy6wfYp_tRHCGX6oZVIA-97" value="&lt;div&gt;NOT NULL&lt;/div&gt;" style="shape=partialRectangle;html=1;connectable=0;strokeColor=inherit;overflow=hidden;fillColor=none;top=0;left=0;bottom=0;right=0;pointerEvents=1;fontSize=16;align=left;" parent="Sy6wfYp_tRHCGX6oZVIA-94" vertex="1">
          <mxGeometry x="148" width="162" height="20" as="geometry">
            <mxRectangle width="162" height="20" as="alternateBounds" />
          </mxGeometry>
        </mxCell>
        <mxCell id="Sy6wfYp_tRHCGX6oZVIA-98" value="used for visual ordering of docs in left pane" style="shape=partialRectangle;html=1;connectable=0;strokeColor=inherit;overflow=hidden;fillColor=none;top=0;left=0;bottom=0;right=0;pointerEvents=1;fontSize=16;align=left;" parent="Sy6wfYp_tRHCGX6oZVIA-94" vertex="1">
          <mxGeometry x="310" width="360" height="20" as="geometry">
            <mxRectangle width="360" height="20" as="alternateBounds" />
          </mxGeometry>
        </mxCell>
        <mxCell id="Sy6wfYp_tRHCGX6oZVIA-99" style="shape=tableRow;horizontal=0;startSize=0;swimlaneHead=0;swimlaneBody=0;strokeColor=inherit;top=0;left=0;bottom=0;right=0;collapsible=0;dropTarget=0;fillColor=none;points=[[0,0.5],[1,0.5]];portConstraint=eastwest;fontSize=16;align=left;" parent="Sy6wfYp_tRHCGX6oZVIA-83" vertex="1">
          <mxGeometry y="110" width="670" height="20" as="geometry" />
        </mxCell>
        <mxCell id="Sy6wfYp_tRHCGX6oZVIA-100" value="parent" style="shape=partialRectangle;html=1;connectable=0;strokeColor=inherit;overflow=hidden;fillColor=none;top=0;left=0;bottom=0;right=0;pointerEvents=1;fontSize=16;align=left;fontColor=#000000;" parent="Sy6wfYp_tRHCGX6oZVIA-99" vertex="1">
          <mxGeometry width="68" height="20" as="geometry">
            <mxRectangle width="68" height="20" as="alternateBounds" />
          </mxGeometry>
        </mxCell>
        <mxCell id="Sy6wfYp_tRHCGX6oZVIA-101" value="INTEGER" style="shape=partialRectangle;html=1;connectable=0;strokeColor=inherit;overflow=hidden;fillColor=none;top=0;left=0;bottom=0;right=0;pointerEvents=1;fontSize=16;align=left;fontColor=#000000;" parent="Sy6wfYp_tRHCGX6oZVIA-99" vertex="1">
          <mxGeometry x="68" width="80" height="20" as="geometry">
            <mxRectangle width="80" height="20" as="alternateBounds" />
          </mxGeometry>
        </mxCell>
        <mxCell id="Sy6wfYp_tRHCGX6oZVIA-102" value="NOT NULL" style="shape=partialRectangle;html=1;connectable=0;strokeColor=inherit;overflow=hidden;fillColor=none;top=0;left=0;bottom=0;right=0;pointerEvents=1;fontSize=16;align=left;fontColor=#000000;" parent="Sy6wfYp_tRHCGX6oZVIA-99" vertex="1">
          <mxGeometry x="148" width="162" height="20" as="geometry">
            <mxRectangle width="162" height="20" as="alternateBounds" />
          </mxGeometry>
        </mxCell>
        <mxCell id="Sy6wfYp_tRHCGX6oZVIA-103" value="id of parent entry" style="shape=partialRectangle;html=1;connectable=0;strokeColor=inherit;overflow=hidden;fillColor=none;top=0;left=0;bottom=0;right=0;pointerEvents=1;fontSize=16;align=left;fontColor=#000000;" parent="Sy6wfYp_tRHCGX6oZVIA-99" vertex="1">
          <mxGeometry x="310" width="360" height="20" as="geometry">
            <mxRectangle width="360" height="20" as="alternateBounds" />
          </mxGeometry>
        </mxCell>
        <mxCell id="Sy6wfYp_tRHCGX6oZVIA-170" style="shape=tableRow;horizontal=0;startSize=0;swimlaneHead=0;swimlaneBody=0;strokeColor=inherit;top=0;left=0;bottom=0;right=0;collapsible=0;dropTarget=0;fillColor=none;points=[[0,0.5],[1,0.5]];portConstraint=eastwest;fontSize=16;align=left;" parent="Sy6wfYp_tRHCGX6oZVIA-83" vertex="1">
          <mxGeometry y="130" width="670" height="20" as="geometry" />
        </mxCell>
        <mxCell id="Sy6wfYp_tRHCGX6oZVIA-171" value="bump" style="shape=partialRectangle;html=1;connectable=0;strokeColor=inherit;overflow=hidden;fillColor=none;top=0;left=0;bottom=0;right=0;pointerEvents=1;fontSize=16;align=left;fontColor=#000000;" parent="Sy6wfYp_tRHCGX6oZVIA-170" vertex="1">
          <mxGeometry width="68" height="20" as="geometry">
            <mxRectangle width="68" height="20" as="alternateBounds" />
          </mxGeometry>
        </mxCell>
        <mxCell id="Sy6wfYp_tRHCGX6oZVIA-172" value="INTEGER" style="shape=partialRectangle;html=1;connectable=0;strokeColor=inherit;overflow=hidden;fillColor=none;top=0;left=0;bottom=0;right=0;pointerEvents=1;fontSize=16;align=left;fontColor=#000000;" parent="Sy6wfYp_tRHCGX6oZVIA-170" vertex="1">
          <mxGeometry x="68" width="80" height="20" as="geometry">
            <mxRectangle width="80" height="20" as="alternateBounds" />
          </mxGeometry>
        </mxCell>
        <mxCell id="Sy6wfYp_tRHCGX6oZVIA-173" value="NOT NULL" style="shape=partialRectangle;html=1;connectable=0;strokeColor=inherit;overflow=hidden;fillColor=none;top=0;left=0;bottom=0;right=0;pointerEvents=1;fontSize=16;align=left;fontColor=#000000;" parent="Sy6wfYp_tRHCGX6oZVIA-170" vertex="1">
          <mxGeometry x="148" width="162" height="20" as="geometry">
            <mxRectangle width="162" height="20" as="alternateBounds" />
          </mxGeometry>
        </mxCell>
        <mxCell id="Sy6wfYp_tRHCGX6oZVIA-174" value="inc any time rec OR doc changes" style="shape=partialRectangle;html=1;connectable=0;strokeColor=inherit;overflow=hidden;fillColor=none;top=0;left=0;bottom=0;right=0;pointerEvents=1;fontSize=16;align=left;fontColor=#000000;" parent="Sy6wfYp_tRHCGX6oZVIA-170" vertex="1">
          <mxGeometry x="310" width="360" height="20" as="geometry">
            <mxRectangle width="360" height="20" as="alternateBounds" />
          </mxGeometry>
        </mxCell>
        <mxCell id="Sy6wfYp_tRHCGX6oZVIA-184" style="edgeStyle=orthogonalEdgeStyle;rounded=1;orthogonalLoop=1;jettySize=auto;html=1;exitX=1;exitY=0.5;exitDx=0;exitDy=0;entryX=1;entryY=0.5;entryDx=0;entryDy=0;startArrow=none;startFill=0;endArrow=ERmany;endFill=0;curved=0;" parent="Sy6wfYp_tRHCGX6oZVIA-83" source="Sy6wfYp_tRHCGX6oZVIA-89" target="Sy6wfYp_tRHCGX6oZVIA-99" edge="1">
          <mxGeometry relative="1" as="geometry">
            <mxPoint x="1038" y="220" as="sourcePoint" />
            <mxPoint x="888" y="400" as="targetPoint" />
          </mxGeometry>
        </mxCell>
        <mxCell id="Sy6wfYp_tRHCGX6oZVIA-111" value="initial values" style="shape=table;startSize=30;container=1;collapsible=0;childLayout=tableLayout;strokeColor=#6c8ebf;fontSize=16;align=center;fillColor=#dae8fc;" parent="1" vertex="1">
          <mxGeometry x="720" y="40" width="520" height="130" as="geometry" />
        </mxCell>
        <mxCell id="Sy6wfYp_tRHCGX6oZVIA-127" style="shape=tableRow;horizontal=0;startSize=0;swimlaneHead=0;swimlaneBody=0;strokeColor=inherit;top=0;left=0;bottom=0;right=0;collapsible=0;dropTarget=0;fillColor=none;points=[[0,0.5],[1,0.5]];portConstraint=eastwest;fontSize=16;align=left;" parent="Sy6wfYp_tRHCGX6oZVIA-111" vertex="1">
          <mxGeometry y="30" width="520" height="20" as="geometry" />
        </mxCell>
        <mxCell id="Sy6wfYp_tRHCGX6oZVIA-128" value="id" style="shape=partialRectangle;html=1;connectable=0;strokeColor=#6c8ebf;overflow=hidden;fillColor=#dae8fc;top=0;left=0;bottom=0;right=0;pointerEvents=1;fontSize=16;align=left;" parent="Sy6wfYp_tRHCGX6oZVIA-127" vertex="1">
          <mxGeometry width="53" height="20" as="geometry">
            <mxRectangle width="53" height="20" as="alternateBounds" />
          </mxGeometry>
        </mxCell>
        <mxCell id="Sy6wfYp_tRHCGX6oZVIA-129" value="key" style="shape=partialRectangle;html=1;connectable=0;strokeColor=#6c8ebf;overflow=hidden;fillColor=#dae8fc;top=0;left=0;bottom=0;right=0;pointerEvents=1;fontSize=16;align=left;" parent="Sy6wfYp_tRHCGX6oZVIA-127" vertex="1">
          <mxGeometry x="53" width="77" height="20" as="geometry">
            <mxRectangle width="77" height="20" as="alternateBounds" />
          </mxGeometry>
        </mxCell>
        <mxCell id="Sy6wfYp_tRHCGX6oZVIA-130" value="value" style="shape=partialRectangle;html=1;connectable=0;strokeColor=#6c8ebf;overflow=hidden;fillColor=#dae8fc;top=0;left=0;bottom=0;right=0;pointerEvents=1;fontSize=16;align=left;" parent="Sy6wfYp_tRHCGX6oZVIA-127" vertex="1">
          <mxGeometry x="130" width="50" height="20" as="geometry">
            <mxRectangle width="50" height="20" as="alternateBounds" />
          </mxGeometry>
        </mxCell>
        <mxCell id="Sy6wfYp_tRHCGX6oZVIA-131" style="shape=partialRectangle;html=1;connectable=0;strokeColor=#6c8ebf;overflow=hidden;fillColor=#dae8fc;top=0;left=0;bottom=0;right=0;pointerEvents=1;fontSize=16;align=left;" parent="Sy6wfYp_tRHCGX6oZVIA-127" vertex="1">
          <mxGeometry x="180" width="340" height="20" as="geometry">
            <mxRectangle width="340" height="20" as="alternateBounds" />
          </mxGeometry>
        </mxCell>
        <mxCell id="Sy6wfYp_tRHCGX6oZVIA-117" value="" style="shape=tableRow;horizontal=0;startSize=0;swimlaneHead=0;swimlaneBody=0;strokeColor=inherit;top=0;left=0;bottom=0;right=0;collapsible=0;dropTarget=0;fillColor=none;points=[[0,0.5],[1,0.5]];portConstraint=eastwest;fontSize=16;align=left;" parent="Sy6wfYp_tRHCGX6oZVIA-111" vertex="1">
          <mxGeometry y="50" width="520" height="40" as="geometry" />
        </mxCell>
        <mxCell id="Sy6wfYp_tRHCGX6oZVIA-118" value="1" style="shape=partialRectangle;html=1;connectable=0;strokeColor=#6c8ebf;overflow=hidden;fillColor=#dae8fc;top=0;left=0;bottom=0;right=0;pointerEvents=1;fontSize=16;align=left;" parent="Sy6wfYp_tRHCGX6oZVIA-117" vertex="1">
          <mxGeometry width="53" height="40" as="geometry">
            <mxRectangle width="53" height="40" as="alternateBounds" />
          </mxGeometry>
        </mxCell>
        <mxCell id="Sy6wfYp_tRHCGX6oZVIA-119" value="dbVersion" style="shape=partialRectangle;html=1;connectable=0;strokeColor=#6c8ebf;overflow=hidden;fillColor=#dae8fc;top=0;left=0;bottom=0;right=0;pointerEvents=1;fontSize=16;align=left;" parent="Sy6wfYp_tRHCGX6oZVIA-117" vertex="1">
          <mxGeometry x="53" width="77" height="40" as="geometry">
            <mxRectangle width="77" height="40" as="alternateBounds" />
          </mxGeometry>
        </mxCell>
        <mxCell id="Sy6wfYp_tRHCGX6oZVIA-120" value="6" style="shape=partialRectangle;html=1;connectable=0;strokeColor=#6c8ebf;overflow=hidden;fillColor=#dae8fc;top=0;left=0;bottom=0;right=0;pointerEvents=1;fontSize=16;align=left;" parent="Sy6wfYp_tRHCGX6oZVIA-117" vertex="1">
          <mxGeometry x="130" width="50" height="40" as="geometry">
            <mxRectangle width="50" height="40" as="alternateBounds" />
          </mxGeometry>
        </mxCell>
        <mxCell id="Sy6wfYp_tRHCGX6oZVIA-121" value="each upgrade increases this number by 1,&amp;nbsp; it is&amp;nbsp;&lt;span style=&quot;background-color: transparent; color: light-dark(rgb(0, 0, 0), rgb(255, 255, 255));&quot;&gt;not the same as doc or software version&lt;/span&gt;&lt;div&gt;&lt;br&gt;&lt;/div&gt;" style="shape=partialRectangle;html=1;connectable=0;strokeColor=#6c8ebf;overflow=hidden;fillColor=#dae8fc;top=0;left=0;bottom=0;right=0;pointerEvents=1;fontSize=16;align=left;whiteSpace=wrap;" parent="Sy6wfYp_tRHCGX6oZVIA-117" vertex="1">
          <mxGeometry x="180" width="340" height="40" as="geometry">
            <mxRectangle width="340" height="40" as="alternateBounds" />
          </mxGeometry>
        </mxCell>
        <mxCell id="-N10hWzUFT1irTYi3381-6" style="shape=tableRow;horizontal=0;startSize=0;swimlaneHead=0;swimlaneBody=0;strokeColor=inherit;top=0;left=0;bottom=0;right=0;collapsible=0;dropTarget=0;fillColor=none;points=[[0,0.5],[1,0.5]];portConstraint=eastwest;fontSize=16;align=left;" parent="Sy6wfYp_tRHCGX6oZVIA-111" vertex="1">
          <mxGeometry y="90" width="520" height="40" as="geometry" />
        </mxCell>
        <mxCell id="-N10hWzUFT1irTYi3381-7" value="auto" style="shape=partialRectangle;html=1;connectable=0;strokeColor=#6c8ebf;overflow=hidden;fillColor=#dae8fc;top=0;left=0;bottom=0;right=0;pointerEvents=1;fontSize=16;align=left;" parent="-N10hWzUFT1irTYi3381-6" vertex="1">
          <mxGeometry width="53" height="40" as="geometry">
            <mxRectangle width="53" height="40" as="alternateBounds" />
          </mxGeometry>
        </mxCell>
        <mxCell id="-N10hWzUFT1irTYi3381-8" value="bump" style="shape=partialRectangle;html=1;connectable=0;strokeColor=#6c8ebf;overflow=hidden;fillColor=#dae8fc;top=0;left=0;bottom=0;right=0;pointerEvents=1;fontSize=16;align=left;" parent="-N10hWzUFT1irTYi3381-6" vertex="1">
          <mxGeometry x="53" width="77" height="40" as="geometry">
            <mxRectangle width="77" height="40" as="alternateBounds" />
          </mxGeometry>
        </mxCell>
        <mxCell id="-N10hWzUFT1irTYi3381-9" value="0" style="shape=partialRectangle;html=1;connectable=0;strokeColor=#6c8ebf;overflow=hidden;fillColor=#dae8fc;top=0;left=0;bottom=0;right=0;pointerEvents=1;fontSize=16;align=left;" parent="-N10hWzUFT1irTYi3381-6" vertex="1">
          <mxGeometry x="130" width="50" height="40" as="geometry">
            <mxRectangle width="50" height="40" as="alternateBounds" />
          </mxGeometry>
        </mxCell>
        <mxCell id="-N10hWzUFT1irTYi3381-10" style="shape=partialRectangle;html=1;connectable=0;strokeColor=#6c8ebf;overflow=hidden;fillColor=#dae8fc;top=0;left=0;bottom=0;right=0;pointerEvents=1;fontSize=16;align=left;whiteSpace=wrap;" parent="-N10hWzUFT1irTYi3381-6" vertex="1">
          <mxGeometry x="180" width="340" height="40" as="geometry">
            <mxRectangle width="340" height="40" as="alternateBounds" />
          </mxGeometry>
        </mxCell>
        <mxCell id="Sy6wfYp_tRHCGX6oZVIA-182" style="edgeStyle=orthogonalEdgeStyle;rounded=1;orthogonalLoop=1;jettySize=auto;html=1;exitX=1;exitY=0.5;exitDx=0;exitDy=0;entryX=1;entryY=0.5;entryDx=0;entryDy=0;startArrow=none;startFill=0;endArrow=ERmany;endFill=0;curved=0;" parent="1" source="Sy6wfYp_tRHCGX6oZVIA-68" edge="1">
          <mxGeometry relative="1" as="geometry">
            <Array as="points">
              <mxPoint x="780" y="455" />
              <mxPoint x="780" y="670" />
            </Array>
          </mxGeometry>
        </mxCell>
        <mxCell id="Sy6wfYp_tRHCGX6oZVIA-183" style="edgeStyle=orthogonalEdgeStyle;rounded=1;orthogonalLoop=1;jettySize=auto;html=1;exitX=1;exitY=0.5;exitDx=0;exitDy=0;entryX=1;entryY=0.5;entryDx=0;entryDy=0;startArrow=none;startFill=0;endArrow=none;endFill=0;curved=0;" parent="1" source="Sy6wfYp_tRHCGX6oZVIA-68" target="Sy6wfYp_tRHCGX6oZVIA-89" edge="1">
          <mxGeometry relative="1" as="geometry">
            <mxPoint x="1000" y="460" as="sourcePoint" />
            <mxPoint x="850" y="640" as="targetPoint" />
            <Array as="points">
              <mxPoint x="720" y="460" />
              <mxPoint x="720" y="270" />
            </Array>
          </mxGeometry>
        </mxCell>
        <mxCell id="Rj2mJbCgSyfov8nDieor-2" value="" style="shape=table;startSize=0;container=1;collapsible=0;childLayout=tableLayout;" parent="1" vertex="1">
          <mxGeometry x="760" y="330" width="270" height="40" as="geometry" />
        </mxCell>
        <mxCell id="Rj2mJbCgSyfov8nDieor-3" value="" style="shape=tableRow;horizontal=0;startSize=0;swimlaneHead=0;swimlaneBody=0;strokeColor=inherit;top=0;left=0;bottom=0;right=0;collapsible=0;dropTarget=0;fillColor=none;points=[[0,0.5],[1,0.5]];portConstraint=eastwest;" parent="Rj2mJbCgSyfov8nDieor-2" vertex="1">
          <mxGeometry width="270" height="40" as="geometry" />
        </mxCell>
        <mxCell id="Rj2mJbCgSyfov8nDieor-4" value="&lt;span style=&quot;color: rgb(0, 0, 0); font-family: Helvetica; font-size: 12px; font-style: normal; font-variant-ligatures: normal; font-variant-caps: normal; font-weight: 400; letter-spacing: normal; orphans: 2; text-indent: 0px; text-transform: none; widows: 2; word-spacing: 0px; -webkit-text-stroke-width: 0px; white-space: normal; background-color: rgb(236, 236, 236); text-decoration-thickness: initial; text-decoration-style: initial; text-decoration-color: initial; float: none; display: inline !important;&quot;&gt;1) converted doc.content from TEXT to BLOB&lt;/span&gt;&lt;div style=&quot;forced-color-adjust: none; color: rgb(0, 0, 0); font-family: Helvetica; font-size: 12px; font-style: normal; font-variant-ligatures: normal; font-variant-caps: normal; font-weight: 400; letter-spacing: normal; orphans: 2; text-indent: 0px; text-transform: none; widows: 2; word-spacing: 0px; -webkit-text-stroke-width: 0px; white-space: normal; background-color: rgb(236, 236, 236); text-decoration-thickness: initial; text-decoration-style: initial; text-decoration-color: initial;&quot;&gt;2) doc.version upgraded to 2.0&lt;/div&gt;" style="shape=partialRectangle;html=1;whiteSpace=wrap;connectable=0;strokeColor=inherit;overflow=hidden;fillColor=none;top=0;left=0;bottom=0;right=0;pointerEvents=1;align=left;" parent="Rj2mJbCgSyfov8nDieor-3" vertex="1">
          <mxGeometry width="270" height="40" as="geometry">
            <mxRectangle width="270" height="40" as="alternateBounds" />
          </mxGeometry>
        </mxCell>
      </root>
    </mxGraphModel>
  </diagram>
</mxfile>
